REM DIRINDEX 1\2,1\3\7,1\3\8,1\4\9,1\4\10,1\4\11,1\5\12,1\5\13,1\5\14,1\6\15,1\6\16,1\6\17
REM DIRNAME "folder01","folder02","folder03","folder04","folder05","folder06","folder07","folder08","folder09","folder10","folder11","folder12","folder13","folder14","folder15","folder16","folder17"
TITLE ""
FILE "2Q_j_1463-1476.mp3" MP3
  TRACK 01 AUDIO
    TITLE "0:"
    INDEX 01 00:00:00
  TRACK 02 AUDIO
    TITLE "9:cjc174_0606"
    INDEX 01 00:00:20
  TRACK 03 AUDIO
    TITLE "0:"
    INDEX 01 00:01:55
  TRACK 04 AUDIO
    TITLE "10:cjc174_0607"
    INDEX 01 00:02:27
  TRACK 05 AUDIO
    TITLE "0:"
    INDEX 01 00:03:36
  TRACK 06 AUDIO
    TITLE "11:cjc174_0608"
    INDEX 01 00:04:08
  TRACK 07 AUDIO
    TITLE "0:"
    INDEX 01 00:07:12
  TRACK 08 AUDIO
    TITLE "9:cjc174_0609"
    INDEX 01 00:07:63
  TRACK 09 AUDIO
    TITLE "0:"
    INDEX 01 00:09:33
  TRACK 10 AUDIO
    TITLE "10:cjc174_0610"
    INDEX 01 00:10:03
  TRACK 11 AUDIO
    TITLE "0:"
    INDEX 01 00:12:19
  TRACK 12 AUDIO
    TITLE "11:cjc174_0611"
    INDEX 01 00:12:64
  TRACK 13 AUDIO
    TITLE "0:"
    INDEX 01 00:16:62
  TRACK 14 AUDIO
    TITLE "9:cjc174_0612"
    INDEX 01 00:17:34
  TRACK 15 AUDIO
    TITLE "0:"
    INDEX 01 00:18:55
  TRACK 16 AUDIO
    TITLE "10:cjc174_0613"
    INDEX 01 00:19:25
  TRACK 17 AUDIO
    TITLE "0:"
    INDEX 01 00:23:25
  TRACK 18 AUDIO
    TITLE "11:cjc174_0614"
    INDEX 01 00:23:70
  TRACK 19 AUDIO
    TITLE "0:"
    INDEX 01 00:27:70
  TRACK 20 AUDIO
    TITLE "9:cjc174_0615"
    INDEX 01 00:28:40
  TRACK 21 AUDIO
    TITLE "0:"
    INDEX 01 00:29:67
  TRACK 22 AUDIO
    TITLE "10:cjc174_0616"
    INDEX 01 00:30:37
  TRACK 23 AUDIO
    TITLE "0:"
    INDEX 01 00:31:56
  TRACK 24 AUDIO
    TITLE "11:cjc174_0617"
    INDEX 01 00:32:24
  TRACK 25 AUDIO
    TITLE "0:"
    INDEX 01 00:37:43
  TRACK 26 AUDIO
    TITLE "9:cjc174_0618"
    INDEX 01 00:38:25
  TRACK 27 AUDIO
    TITLE "0:"
    INDEX 01 00:39:63
  TRACK 28 AUDIO
    TITLE "10:cjc174_0619"
    INDEX 01 00:40:35
  TRACK 29 AUDIO
    TITLE "0:"
    INDEX 01 00:42:66
  TRACK 30 AUDIO
    TITLE "11:cjc174_0620"
    INDEX 01 00:43:36
  TRACK 31 AUDIO
    TITLE "0:"
    INDEX 01 00:47:49
  TRACK 32 AUDIO
    TITLE "9:cjc174_0621"
    INDEX 01 00:48:29
  TRACK 33 AUDIO
    TITLE "0:"
    INDEX 01 00:49:42
  TRACK 34 AUDIO
    TITLE "10:cjc174_0622"
    INDEX 01 00:50:20
  TRACK 35 AUDIO
    TITLE "0:"
    INDEX 01 00:51:51
  TRACK 36 AUDIO
    TITLE "11:cjc174_0623"
    INDEX 01 00:52:23
  TRACK 37 AUDIO
    TITLE "0:"
    INDEX 01 00:56:01
  TRACK 38 AUDIO
    TITLE "9:cjc174_0624"
    INDEX 01 00:56:46
  TRACK 39 AUDIO
    TITLE "0:"
    INDEX 01 00:57:65
  TRACK 40 AUDIO
    TITLE "10:cjc174_0625"
    INDEX 01 00:58:41
  TRACK 41 AUDIO
    TITLE "0:"
    INDEX 01 00:59:64
  TRACK 42 AUDIO
    TITLE "11:cjc174_0626"
    INDEX 01 01:00:34
  TRACK 43 AUDIO
    TITLE "0:"
    INDEX 01 01:03:36
  TRACK 44 AUDIO
    TITLE "9:cjc174_0627"
    INDEX 01 01:04:12
  TRACK 45 AUDIO
    TITLE "0:"
    INDEX 01 01:05:25
  TRACK 46 AUDIO
    TITLE "10:cjc174_0628"
    INDEX 01 01:06:01
  TRACK 47 AUDIO
    TITLE "0:"
    INDEX 01 01:08:28
  TRACK 48 AUDIO
    TITLE "11:cjc174_0629"
    INDEX 01 01:08:73
  TRACK 49 AUDIO
    TITLE "0:"
    INDEX 01 01:13:60
  TRACK 50 AUDIO
    TITLE "9:cjc174_0630"
    INDEX 01 01:14:34
  TRACK 51 AUDIO
    TITLE "0:"
    INDEX 01 01:15:63
  TRACK 52 AUDIO
    TITLE "10:cjc174_0631"
    INDEX 01 01:16:37
  TRACK 53 AUDIO
    TITLE "0:"
    INDEX 01 01:18:57
  TRACK 54 AUDIO
    TITLE "11:cjc174_0632"
    INDEX 01 01:19:27
  TRACK 55 AUDIO
    TITLE "0:"
    INDEX 01 01:23:29
  TRACK 56 AUDIO
    TITLE "9:cjc174_0633"
    INDEX 01 01:23:74
  TRACK 57 AUDIO
    TITLE "0:"
    INDEX 01 01:25:36
  TRACK 58 AUDIO
    TITLE "10:cjc174_0634"
    INDEX 01 01:26:06
  TRACK 59 AUDIO
    TITLE "0:"
    INDEX 01 01:28:09
  TRACK 60 AUDIO
    TITLE "11:cjc174_0635"
    INDEX 01 01:28:54
  TRACK 61 AUDIO
    TITLE "0:"
    INDEX 01 01:34:15
  TRACK 62 AUDIO
    TITLE "9:cjc174_0636"
    INDEX 01 01:34:62
  TRACK 63 AUDIO
    TITLE "0:"
    INDEX 01 01:36:26
  TRACK 64 AUDIO
    TITLE "10:cjc174_0637"
    INDEX 01 01:36:73
  TRACK 65 AUDIO
    TITLE "0:"
    INDEX 01 01:38:72
  TRACK 66 AUDIO
    TITLE "11:cjc174_0638"
    INDEX 01 01:39:42
  TRACK 67 AUDIO
    TITLE "0:"
    INDEX 01 01:44:27
  TRACK 68 AUDIO
    TITLE "9:cjc174_0639"
    INDEX 01 01:45:01
  TRACK 69 AUDIO
    TITLE "0:"
    INDEX 01 01:46:40
  TRACK 70 AUDIO
    TITLE "10:cjc174_0640"
    INDEX 01 01:47:10
  TRACK 71 AUDIO
    TITLE "0:"
    INDEX 01 01:50:20
  TRACK 72 AUDIO
    TITLE "11:cjc174_0641"
    INDEX 01 01:50:65
  TRACK 73 AUDIO
    TITLE "0:"
    INDEX 01 01:53:56
  TRACK 74 AUDIO
    TITLE "9:cjc174_0642"
    INDEX 01 01:54:28
  TRACK 75 AUDIO
    TITLE "0:"
    INDEX 01 01:55:45
  TRACK 76 AUDIO
    TITLE "10:cjc174_0643"
    INDEX 01 01:56:19
  TRACK 77 AUDIO
    TITLE "0:"
    INDEX 01 01:58:24
  TRACK 78 AUDIO
    TITLE "11:cjc174_0644"
    INDEX 01 01:58:71
  TRACK 79 AUDIO
    TITLE "0:"
    INDEX 01 02:04:36
  TRACK 80 AUDIO
    TITLE "9:cjc174_0645"
    INDEX 01 02:05:08
  TRACK 81 AUDIO
    TITLE "0:"
    INDEX 01 02:06:49
  TRACK 82 AUDIO
    TITLE "10:cjc174_0646"
    INDEX 01 02:07:19
  TRACK 83 AUDIO
    TITLE "0:"
    INDEX 01 02:11:20
  TRACK 84 AUDIO
    TITLE "11:cjc174_0647"
    INDEX 01 02:11:65
  TRACK 85 AUDIO
    TITLE "0:"
    INDEX 01 02:15:52
